<?xml version="1.0" encoding="UTF-8" standalone="no"?><!DOCTYPE svg PUBLIC "-//W3C//DTD SVG 1.1//EN" "http://www.w3.org/Graphics/SVG/1.1/DTD/svg11.dtd"><svg width="100%" height="100%" viewBox="0 0 468 376" version="1.1" xmlns="http://www.w3.org/2000/svg" xmlns:xlink="http://www.w3.org/1999/xlink" xml:space="preserve" xmlns:serif="http://www.serif.com/" style="fill-rule:evenodd;clip-rule:evenodd;stroke-linejoin:round;stroke-miterlimit:2;"><path d="M451.93,45.93l-436,-0c-3.292,-0 -6,-2.709 -6,-6l-0,-24c-0,-3.292 2.708,-6 6,-6l436,-0c3.291,-0 6,2.708 6,6l-0,24c-0,3.291 -2.709,6 -6,6Zm-0,160l-436,-0c-3.292,-0 -6,-2.709 -6,-6l-0,-24c-0,-3.292 2.708,-6 6,-6l436,-0c3.291,-0 6,2.708 6,6l-0,24c-0,3.291 -2.709,6 -6,6Zm-0,160l-436,-0c-3.292,-0 -6,-2.709 -6,-6l-0,-24c-0,-3.292 2.708,-6 6,-6l436,-0c3.291,-0 6,2.708 6,6l-0,24c-0,3.291 -2.709,6 -6,6Z" style="fill:#212529;fill-rule:nonzero;stroke:#212529;stroke-width:19.86px;"/></svg>